<svg width="85" height="19" viewBox="0 0 85 19" fill="none" xmlns="http://www.w3.org/2000/svg">
<path d="M23.3414 4.80119H19.6874C19.5682 4.80119 19.502 4.86739 19.502 4.98655V13.1949C19.502 13.3141 19.5682 13.3803 19.6874 13.3803H21.1702C21.2893 13.3803 21.3555 13.3141 21.3555 13.1949V10.8516C21.9645 11.0634 22.6265 11.1826 23.209 11.1826C25.2611 11.1826 26.7307 10.0572 26.7307 8.00512C26.7307 5.95302 25.2611 4.80119 23.3414 4.80119ZM23.209 9.40849C22.5868 9.40849 21.9645 9.28933 21.3555 9.05103V6.57527H23.3414C24.2682 6.57527 24.8772 7.10484 24.8772 7.99188C24.8772 8.86568 24.2682 9.40849 23.209 9.40849ZM30.914 6.62822C28.7825 6.62822 27.4188 8.17723 27.4188 10.0705C27.4188 11.9637 28.7825 13.5127 30.914 13.5127C33.0456 13.5127 34.4092 11.9637 34.4092 10.0705C34.4092 8.17723 33.0456 6.62822 30.914 6.62822ZM29.2194 10.0705C29.2194 9.02455 29.9078 8.32286 30.914 8.32286C31.9202 8.32286 32.6087 9.02455 32.6087 10.0705C32.6087 11.1164 31.9202 11.8181 30.914 11.8181C29.9078 11.8181 29.2194 11.1164 29.2194 10.0705ZM40.1306 8.64061L40.541 7.50202C40.5807 7.36963 40.5675 7.30343 40.4351 7.25047C39.3494 6.80034 38.4227 6.62822 37.668 6.62822C36.0793 6.62822 35.2188 7.48878 35.2188 8.72004C35.2188 9.71299 35.6954 10.2558 36.8737 10.6L38.4889 11.0634C38.8861 11.1826 39.0052 11.2885 39.0052 11.5268C39.0052 11.8048 38.7802 11.9504 38.2771 11.9504C37.6416 11.9504 36.9134 11.8048 35.7086 11.3547C35.5498 11.2885 35.4703 11.3282 35.4306 11.4473L35.0334 12.5992C34.9937 12.7183 34.9937 12.7978 35.1261 12.864C36.4897 13.3803 37.5224 13.5127 38.2771 13.5127C39.8658 13.5127 40.7528 12.7183 40.7528 11.4341C40.7528 10.269 40.1306 9.81891 38.9655 9.48793L37.4695 9.06427C37.0855 8.94511 36.9796 8.81272 36.9796 8.61413C36.9796 8.30962 37.2179 8.19047 37.6548 8.19047C38.1182 8.19047 38.9125 8.34934 39.879 8.73328C40.0379 8.79948 40.0909 8.74652 40.1306 8.64061ZM46.7133 12.6521L46.144 11.5268C46.0911 11.4076 46.0116 11.4209 45.9454 11.4606C45.4159 11.8048 45.0054 11.8445 44.7142 11.8445C44.0654 11.8445 43.8404 11.4606 43.8404 10.7589V8.34934H45.9057C46.0116 8.34934 46.0778 8.28314 46.0778 8.16399V6.94597C46.0778 6.82681 46.0116 6.76062 45.9057 6.76062H43.8404V5.5426C43.8404 5.42344 43.7742 5.35725 43.6683 5.35725H42.1987C42.0928 5.35725 42.0398 5.42344 42.0398 5.5426V6.76062H41.5103C41.4043 6.76062 41.3381 6.82681 41.3381 6.94597V8.16399C41.3381 8.28314 41.4043 8.34934 41.5103 8.34934H42.0398V10.9443C42.0398 12.3741 42.6886 13.5127 44.6347 13.5127C45.1908 13.5127 45.9057 13.3671 46.6604 12.8904C46.7663 12.8242 46.753 12.758 46.7133 12.6521ZM56.5208 4.80119H54.4422C54.3363 4.80119 54.2436 4.84091 54.2171 4.92035L52.165 10.6927L50.1129 4.92035C50.0865 4.84091 49.9805 4.80119 49.8879 4.80119H47.7563C47.6372 4.80119 47.571 4.86739 47.571 4.98655V13.1949C47.571 13.3141 47.6372 13.3803 47.7563 13.3803H49.1067C49.2259 13.3803 49.2921 13.3141 49.2921 13.1949V7.75357L51.2515 13.2611C51.278 13.3406 51.3839 13.3803 51.4766 13.3803H52.7873C52.8932 13.3803 52.9991 13.3406 53.0256 13.2611L54.985 7.75357V13.1949C54.985 13.3141 55.0512 13.3803 55.1704 13.3803H56.5208C56.6399 13.3803 56.7061 13.3141 56.7061 13.1949V4.98655C56.7061 4.86739 56.6399 4.80119 56.5208 4.80119ZM63.8365 11.3282C63.7305 11.1428 63.6511 11.0899 63.4658 11.1958C62.6184 11.6724 62.0227 11.8313 61.4666 11.8313C60.5134 11.8313 59.9441 11.2488 59.772 10.5471H64.1542C64.366 10.5471 64.5249 10.4412 64.5249 10.0705C64.5249 8.04484 63.3996 6.62822 61.3077 6.62822C59.2689 6.62822 57.9185 8.04484 57.9185 10.0705C57.9185 11.9637 59.2689 13.5127 61.4931 13.5127C62.4993 13.5127 63.3201 13.2744 64.3263 12.5992C64.4719 12.4933 64.4587 12.4138 64.3925 12.2947L63.8365 11.3282ZM61.2151 8.17723C61.93 8.17723 62.486 8.45526 62.6317 9.19666H59.8249C60.05 8.54793 60.6325 8.17723 61.2151 8.17723ZM72.0931 4.40401H70.6632C70.5705 4.40401 70.4779 4.48345 70.4779 4.58936V7.26371C70.0277 6.86653 69.4319 6.62822 68.6508 6.62822C66.6517 6.62822 65.288 8.17723 65.288 10.0705C65.288 11.9637 66.6517 13.5127 68.6508 13.5127C69.4319 13.5127 70.0277 13.2744 70.4779 12.8772V13.1949C70.4779 13.3009 70.5705 13.3803 70.6632 13.3803H72.0931C72.1857 13.3803 72.2784 13.3009 72.2784 13.1949V4.58936C72.2784 4.48345 72.1857 4.40401 72.0931 4.40401ZM68.7832 11.8313C67.8432 11.8313 67.0886 11.1164 67.0886 10.0705C67.0886 9.02455 67.8432 8.30962 68.7832 8.30962C69.7232 8.30962 70.4779 9.02455 70.4779 10.0705C70.4779 11.1164 69.7232 11.8313 68.7832 11.8313ZM74.4426 4.04655C73.7807 4.04655 73.357 4.53641 73.357 5.13218C73.357 5.72795 73.7807 6.21781 74.4426 6.21781C75.1046 6.21781 75.5283 5.72795 75.5283 5.13218C75.5283 4.53641 75.1046 4.04655 74.4426 4.04655ZM75.1576 6.76062H73.7277C73.6085 6.76062 73.5424 6.82681 73.5424 6.94597V13.1949C73.5424 13.3141 73.6085 13.3803 73.7277 13.3803H75.1576C75.2767 13.3803 75.3429 13.3141 75.3429 13.1949V6.94597C75.3429 6.82681 75.2767 6.76062 75.1576 6.76062ZM83.2379 6.76062H81.808C81.7154 6.76062 81.6227 6.84005 81.6227 6.94597V7.26371C81.1726 6.86653 80.5768 6.62822 79.7957 6.62822C77.7965 6.62822 76.4329 8.17723 76.4329 10.0705C76.4329 11.9637 77.7965 13.5127 79.7957 13.5127C80.5768 13.5127 81.1726 13.2744 81.6227 12.8772V13.1949C81.6227 13.3141 81.6889 13.3803 81.808 13.3803H83.2379C83.3571 13.3803 83.4232 13.3141 83.4232 13.1949V6.94597C83.4232 6.84005 83.3306 6.76062 83.2379 6.76062ZM79.9281 11.8313C78.9881 11.8313 78.2334 11.1164 78.2334 10.0705C78.2334 9.02455 78.9881 8.30962 79.9281 8.30962C80.8681 8.30962 81.6227 9.02455 81.6227 10.0705C81.6227 11.1164 80.8681 11.8313 79.9281 11.8313Z" fill="#152766"/>
<rect x="5.11383" y="11.9784" width="7.6593" height="2.80372" fill="#5019DC"/>
<rect x="0.617676" y="9.84138" width="2.80391" height="4.9408" fill="#152766"/>
<path d="M9.02237 1.21783H12.7732V4.02174H8.08203L9.02237 1.21783Z" fill="#152766"/>
<rect x="9.96924" y="9.84138" width="8.62352" height="2.80391" transform="rotate(-90 9.96924 9.84138)" fill="#152766"/>
<rect x="0.617676" y="7.03746" width="12.1555" height="2.80391" fill="#152766"/>
<path d="M0.597656 3.8808V1.20197H2.01702L0.597656 3.8808Z" fill="#97B1DF"/>
<path d="M0.890869 4.00739L2.39688 1.2153H3.37645L1.87711 4.00739H0.890869Z" fill="#9C0A01"/>
<path d="M2.25024 4.02072L3.74957 1.22195H4.73582L3.22981 4.02072H2.25024Z" fill="#055C9D"/>
<path d="M3.60303 4.00739L5.11569 1.2153H6.08192L4.58925 4.00739H3.60303Z" fill="#FAE8E0"/>
<path d="M4.96912 4.00739L6.46179 1.19531L7.42802 1.23528L5.95534 4.00739H4.96912Z" fill="#FFC2C7"/>
<path d="M6.32178 4.01407L7.82114 1.20862H8.2476L7.36799 4.01407H6.32178Z" fill="#152766"/>
</svg>
