<svg width="85" height="19" viewBox="0 0 85 19" fill="none" xmlns="http://www.w3.org/2000/svg">
<path d="M23.4458 4.80119H19.7918C19.6726 4.80119 19.6064 4.86739 19.6064 4.98655V13.1949C19.6064 13.3141 19.6726 13.3803 19.7918 13.3803H21.2746C21.3937 13.3803 21.4599 13.3141 21.4599 13.1949V10.8516C22.069 11.0634 22.7309 11.1826 23.3135 11.1826C25.3656 11.1826 26.8351 10.0572 26.8351 8.00512C26.8351 5.95302 25.3656 4.80119 23.4458 4.80119ZM23.3135 9.40849C22.6912 9.40849 22.069 9.28933 21.4599 9.05103V6.57527H23.4458C24.3726 6.57527 24.9816 7.10484 24.9816 7.99188C24.9816 8.86568 24.3726 9.40849 23.3135 9.40849ZM31.0184 6.62822C28.8869 6.62822 27.5233 8.17723 27.5233 10.0705C27.5233 11.9637 28.8869 13.5127 31.0184 13.5127C33.15 13.5127 34.5136 11.9637 34.5136 10.0705C34.5136 8.17723 33.15 6.62822 31.0184 6.62822ZM29.3238 10.0705C29.3238 9.02455 30.0123 8.32286 31.0184 8.32286C32.0246 8.32286 32.7131 9.02455 32.7131 10.0705C32.7131 11.1164 32.0246 11.8181 31.0184 11.8181C30.0123 11.8181 29.3238 11.1164 29.3238 10.0705ZM40.235 8.64061L40.6454 7.50202C40.6851 7.36963 40.6719 7.30343 40.5395 7.25047C39.4539 6.80034 38.5271 6.62822 37.7725 6.62822C36.1838 6.62822 35.3232 7.48878 35.3232 8.72004C35.3232 9.71299 35.7998 10.2558 36.9781 10.6L38.5933 11.0634C38.9905 11.1826 39.1097 11.2885 39.1097 11.5268C39.1097 11.8048 38.8846 11.9504 38.3815 11.9504C37.746 11.9504 37.0178 11.8048 35.8131 11.3547C35.6542 11.2885 35.5747 11.3282 35.535 11.4473L35.1378 12.5992C35.0981 12.7183 35.0981 12.7978 35.2305 12.864C36.5942 13.3803 37.6268 13.5127 38.3815 13.5127C39.9702 13.5127 40.8572 12.7183 40.8572 11.4341C40.8572 10.269 40.235 9.81891 39.0699 9.48793L37.5739 9.06427C37.1899 8.94511 37.084 8.81272 37.084 8.61413C37.084 8.30962 37.3223 8.19047 37.7592 8.19047C38.2226 8.19047 39.017 8.34934 39.9835 8.73328C40.1423 8.79948 40.1953 8.74652 40.235 8.64061ZM46.8178 12.6521L46.2485 11.5268C46.1955 11.4076 46.1161 11.4209 46.0499 11.4606C45.5203 11.8048 45.1099 11.8445 44.8186 11.8445C44.1699 11.8445 43.9448 11.4606 43.9448 10.7589V8.34934H46.0101C46.1161 8.34934 46.1823 8.28314 46.1823 8.16399V6.94597C46.1823 6.82681 46.1161 6.76062 46.0101 6.76062H43.9448V5.5426C43.9448 5.42344 43.8786 5.35725 43.7727 5.35725H42.3031C42.1972 5.35725 42.1443 5.42344 42.1443 5.5426V6.76062H41.6147C41.5088 6.76062 41.4426 6.82681 41.4426 6.94597V8.16399C41.4426 8.28314 41.5088 8.34934 41.6147 8.34934H42.1443V10.9443C42.1443 12.3741 42.793 13.5127 44.7392 13.5127C45.2952 13.5127 46.0101 13.3671 46.7648 12.8904C46.8707 12.8242 46.8575 12.758 46.8178 12.6521ZM56.6252 4.80119H54.5466C54.4407 4.80119 54.348 4.84091 54.3216 4.92035L52.2695 10.6927L50.2174 4.92035C50.1909 4.84091 50.085 4.80119 49.9923 4.80119H47.8608C47.7416 4.80119 47.6754 4.86739 47.6754 4.98655V13.1949C47.6754 13.3141 47.7416 13.3803 47.8608 13.3803H49.2112C49.3303 13.3803 49.3965 13.3141 49.3965 13.1949V7.75357L51.356 13.2611C51.3824 13.3406 51.4883 13.3803 51.581 13.3803H52.8917C52.9976 13.3803 53.1035 13.3406 53.13 13.2611L55.0894 7.75357V13.1949C55.0894 13.3141 55.1556 13.3803 55.2748 13.3803H56.6252C56.7444 13.3803 56.8106 13.3141 56.8106 13.1949V4.98655C56.8106 4.86739 56.7444 4.80119 56.6252 4.80119ZM63.9409 11.3282C63.835 11.1428 63.7555 11.0899 63.5702 11.1958C62.7229 11.6724 62.1271 11.8313 61.571 11.8313C60.6178 11.8313 60.0485 11.2488 59.8764 10.5471H64.2586C64.4705 10.5471 64.6293 10.4412 64.6293 10.0705C64.6293 8.04484 63.504 6.62822 61.4122 6.62822C59.3733 6.62822 58.0229 8.04484 58.0229 10.0705C58.0229 11.9637 59.3733 13.5127 61.5975 13.5127C62.6037 13.5127 63.4246 13.2744 64.4307 12.5992C64.5764 12.4933 64.5631 12.4138 64.4969 12.2947L63.9409 11.3282ZM61.3195 8.17723C62.0344 8.17723 62.5905 8.45526 62.7361 9.19666H59.9294C60.1544 8.54793 60.737 8.17723 61.3195 8.17723ZM72.1975 4.40401H70.7676C70.675 4.40401 70.5823 4.48345 70.5823 4.58936V7.26371C70.1321 6.86653 69.5364 6.62822 68.7553 6.62822C66.7561 6.62822 65.3925 8.17723 65.3925 10.0705C65.3925 11.9637 66.7561 13.5127 68.7553 13.5127C69.5364 13.5127 70.1321 13.2744 70.5823 12.8772V13.1949C70.5823 13.3009 70.675 13.3803 70.7676 13.3803H72.1975C72.2902 13.3803 72.3828 13.3009 72.3828 13.1949V4.58936C72.3828 4.48345 72.2902 4.40401 72.1975 4.40401ZM68.8876 11.8313C67.9477 11.8313 67.193 11.1164 67.193 10.0705C67.193 9.02455 67.9477 8.30962 68.8876 8.30962C69.8276 8.30962 70.5823 9.02455 70.5823 10.0705C70.5823 11.1164 69.8276 11.8313 68.8876 11.8313ZM74.5471 4.04655C73.8851 4.04655 73.4614 4.53641 73.4614 5.13218C73.4614 5.72795 73.8851 6.21781 74.5471 6.21781C75.209 6.21781 75.6327 5.72795 75.6327 5.13218C75.6327 4.53641 75.209 4.04655 74.5471 4.04655ZM75.262 6.76062H73.8321C73.713 6.76062 73.6468 6.82681 73.6468 6.94597V13.1949C73.6468 13.3141 73.713 13.3803 73.8321 13.3803H75.262C75.3811 13.3803 75.4473 13.3141 75.4473 13.1949V6.94597C75.4473 6.82681 75.3811 6.76062 75.262 6.76062ZM83.3423 6.76062H81.9125C81.8198 6.76062 81.7271 6.84005 81.7271 6.94597V7.26371C81.277 6.86653 80.6812 6.62822 79.9001 6.62822C77.901 6.62822 76.5373 8.17723 76.5373 10.0705C76.5373 11.9637 77.901 13.5127 79.9001 13.5127C80.6812 13.5127 81.277 13.2744 81.7271 12.8772V13.1949C81.7271 13.3141 81.7933 13.3803 81.9125 13.3803H83.3423C83.4615 13.3803 83.5277 13.3141 83.5277 13.1949V6.94597C83.5277 6.84005 83.435 6.76062 83.3423 6.76062ZM80.0325 11.8313C79.0925 11.8313 78.3379 11.1164 78.3379 10.0705C78.3379 9.02455 79.0925 8.30962 80.0325 8.30962C80.9725 8.30962 81.7271 9.02455 81.7271 10.0705C81.7271 11.1164 80.9725 11.8313 80.0325 11.8313Z" fill="white"/>
<rect x="5.21826" y="11.9784" width="7.6593" height="2.80372" fill="white"/>
<rect x="0.722107" y="9.84138" width="2.80391" height="4.9408" fill="white"/>
<path d="M9.12681 1.21783H12.8776V4.02174H8.18646L9.12681 1.21783Z" fill="#152766"/>
<rect x="10.0737" y="9.84138" width="8.62352" height="2.80391" transform="rotate(-90 10.0737 9.84138)" fill="white"/>
<rect x="0.722107" y="7.03746" width="12.1555" height="2.80391" fill="white"/>
<path d="M0.702148 3.8808V1.20197H2.12151L0.702148 3.8808Z" fill="#97B1DF"/>
<path d="M0.9953 4.00739L2.50131 1.2153H3.48088L1.98154 4.00739H0.9953Z" fill="#9C0A01"/>
<path d="M2.35474 4.02072L3.85406 1.22195H4.84031L3.33431 4.02072H2.35474Z" fill="#055C9D"/>
<path d="M3.70746 4.00739L5.22012 1.2153H6.18635L4.69368 4.00739H3.70746Z" fill="#FAE8E0"/>
<path d="M5.07349 4.00739L6.56616 1.19531L7.53239 1.23528L6.05971 4.00739H5.07349Z" fill="#FFC2C7"/>
<path d="M6.42627 4.01407L7.92563 1.20862H8.35209L7.47248 4.01407H6.42627Z" fill="white"/>
</svg>
